
<svg xmlns="http://www.w3.org/2000/svg" viewBox="0 0 400 500" width="400" height="500">
  <defs>
    <linearGradient id="clay" x1="0" y1="0" x2="1" y2="1">
      <stop offset="0" stop-color="#8B6340"></stop>
      <stop offset="0.5" stop-color="#A67C52"></stop>
      <stop offset="1" stop-color="#704A2E"></stop>
    </linearGradient>
    <radialGradient id="highlight" cx="0.35" cy="0.35" r="0.4">
      <stop offset="0" stop-color="#EDE4D3" stop-opacity="0.35"></stop>
      <stop offset="1" stop-color="#EDE4D3" stop-opacity="0"></stop>
    </radialGradient>
  </defs>
  <rect width="400" height="500" fill="#EDE4D3"></rect>
  
  <path d="M140 160 Q200 120 260 160 Q290 180 285 220 Q320 260 310 330 Q300 400 200 420 Q100 400 90 330 Q80 260 115 220 Q110 180 140 160 Z" fill="url(#clay)"></path>
  <path d="M140 160 Q200 120 260 160 Q290 180 285 220 Q320 260 310 330 Q300 400 200 420 Q100 400 90 330 Q80 260 115 220 Q110 180 140 160 Z" fill="url(#highlight)"></path>
  
  <ellipse cx="200" cy="155" rx="60" ry="8" fill="#3E2723" opacity="0.4"></ellipse>
  
  <path d="M105 280 Q200 295 295 280" stroke="#C9A253" stroke-width="1.5" fill="none" opacity="0.6"></path>
  
  <ellipse cx="200" cy="430" rx="130" ry="14" fill="#3E2723" opacity="0.12"></ellipse>
</svg>