
<svg xmlns="http://www.w3.org/2000/svg" viewBox="0 0 400 500" width="400" height="500">
  <rect width="400" height="500" fill="#EDE4D3"></rect>
  <g opacity="0.9">
    <rect x="60" y="80" width="280" height="360" fill="#A88696"></rect>
    <g fill="#EDE4D3">
      <rect x="60" y="120" width="280" height="2"></rect>
      <rect x="60" y="160" width="280" height="1"></rect>
      <rect x="60" y="200" width="280" height="3"></rect>
      <rect x="60" y="260" width="280" height="1"></rect>
      <rect x="60" y="300" width="280" height="2"></rect>
      <rect x="60" y="360" width="280" height="1"></rect>
      <rect x="60" y="400" width="280" height="2"></rect>
    </g>
    <g fill="#704A2E" opacity="0.5">
      <rect x="90" y="150" width="8" height="220"></rect>
      <rect x="150" y="150" width="8" height="220"></rect>
      <rect x="210" y="150" width="8" height="220"></rect>
      <rect x="270" y="150" width="8" height="220"></rect>
    </g>
    <g fill="#C9A253" opacity="0.6">
      <rect x="60" y="240" width="280" height="1"></rect>
      <rect x="60" y="330" width="280" height="1"></rect>
    </g>
    <g fill="#3E2723" opacity="0.25">
      <rect x="60" y="78" width="280" height="4"></rect>
      <rect x="60" y="438" width="280" height="4"></rect>
    </g>
    <g fill="#EDE4D3" opacity="0.6">
      <rect x="60" y="80" width="2" height="360"></rect>
      <rect x="338" y="80" width="2" height="360"></rect>
    </g>
  </g>
  <ellipse cx="200" cy="460" rx="140" ry="8" fill="#3E2723" opacity="0.1"></ellipse>
</svg>